<svg id="Layer_1" data-name="Layer 1" xmlns="http://www.w3.org/2000/svg" xmlns:xlink="http://www.w3.org/1999/xlink" viewBox="0 0 422.08 422.08"><defs><style>.cls-1{fill:#231f20;}.cls-2{mask:url(#mask);}.cls-3{fill:url(#linear-gradient);}.cls-4{filter:url(#luminosity-invert);}</style><filter id="luminosity-invert" filterUnits="userSpaceOnUse" color-interpolation-filters="sRGB"><feColorMatrix values="-1 0 0 0 1 0 -1 0 0 1 0 0 -1 0 1 0 0 0 1 0"/></filter><mask id="mask" x="0" y="0" width="422.08" height="422.08" maskUnits="userSpaceOnUse"><g class="cls-4"><g transform="translate(-98.61 -356.21)"><path class="cls-1" d="M204.31,545V655.69q0,11.58,5.58,16.74t18.79,5.16h26.86v48.75H219.18q-73.12,0-73.12-71.06V545H118.79V497.46h27.27v-56.6h58.25v56.6h51.23V545Z"/><path class="cls-1" d="M402.2,545H362.12V726.34H303.46V545h-26V497.46h26V485.89q0-42.13,24-62t72.3-18.59v48.75q-21.08-.4-29.33,7T362.12,488v9.5H402.2Z"/><path class="cls-1" d="M439.58,719.52a33.91,33.91,0,0,1,0-48.33q10.11-9.71,25.82-9.71,15.28,0,25.2,9.71t9.92,24.16q0,14.48-9.92,24.17t-25.2,9.71Q449.7,729.23,439.58,719.52Z"/></g></g></mask><linearGradient id="linear-gradient" y1="211.04" x2="422.08" y2="211.04" gradientUnits="userSpaceOnUse"><stop offset="0" stop-color="#f47d61"/><stop offset="1" stop-color="#ab5ca4"/></linearGradient></defs><g class="cls-2"><rect class="cls-3" width="422.08" height="422.08"/></g></svg>