<svg id="Layer_1" data-name="Layer 1" xmlns="http://www.w3.org/2000/svg" xmlns:xlink="http://www.w3.org/1999/xlink" viewBox="0 0 88.08 88.08"><defs><style>.cls-1{fill:#231f20;}.cls-2{mask:url(#mask);}.cls-3{fill:url(#linear-gradient);}.cls-4{filter:url(#luminosity-invert);}</style><filter id="luminosity-invert" filterUnits="userSpaceOnUse" color-interpolation-filters="sRGB"><feColorMatrix values="-1 0 0 0 1 0 -1 0 0 1 0 0 -1 0 1 0 0 0 1 0"/></filter><mask id="mask" x="0" y="0" width="88.08" height="88.08" maskUnits="userSpaceOnUse"><g class="cls-4"><g transform="translate(-167.37 -462.91)"><path class="cls-1" d="M214.39,550.91a1.06,1.06,0,0,1-.47,0H172.49a4.91,4.91,0,0,1-4.14-2,4.66,4.66,0,0,1-1-2.81c0-.19,0-.38,0-.56V468.25a6.75,6.75,0,0,1,.16-1.68,4.82,4.82,0,0,1,4.3-3.63c.27,0,.55,0,.82,0h77.51a5.33,5.33,0,0,1,2.4.42,4.77,4.77,0,0,1,2.89,4.33c0,.2,0,.4,0,.6V545.6a7,7,0,0,1-.06,1.29,4.84,4.84,0,0,1-4.71,4.06h-22a1.5,1.5,0,0,1-.56,0c0-.19,0-.38,0-.57q0-16.41,0-32.84c0-.64,0-.64.65-.64h10.39c.42,0,.42,0,.47-.37.2-1.62.41-3.23.62-4.85s.43-3.37.65-5.06l.36-2.74c0-.22,0-.3-.25-.28H228.53c-.37,0-.37,0-.37-.34,0-2.91,0-5.83,0-8.74a9.3,9.3,0,0,1,.27-2.1,4.32,4.32,0,0,1,2-2.83,5.74,5.74,0,0,1,1.56-.63,11.77,11.77,0,0,1,3-.3h6.62c.17,0,.24-.07.24-.23s0-.23,0-.35V477.49c0-.77,0-.77-.77-.84q-4.81-.43-9.64-.44a21.14,21.14,0,0,0-5,.61,15.28,15.28,0,0,0-7.2,3.93,15.48,15.48,0,0,0-4.08,7.41,24.45,24.45,0,0,0-.66,6.09c0,2.91,0,5.83,0,8.74,0,.67.08.58-.57.58H203.38c-.43,0-.43,0-.43.43v12.41c0,.51,0,.46.48.46h10.43c.62,0,.56-.08.56.55v33C214.42,550.6,214.4,550.75,214.39,550.91Z"/></g></g></mask><linearGradient id="linear-gradient" y1="44.04" x2="88.08" y2="44.04" gradientUnits="userSpaceOnUse"><stop offset="0" stop-color="#ff7e5f"/><stop offset="1" stop-color="#b758ba"/></linearGradient></defs><g class="cls-2"><rect class="cls-3" width="88.08" height="88.08"/></g></svg>