<svg id="Layer_1" data-name="Layer 1" xmlns="http://www.w3.org/2000/svg" xmlns:xlink="http://www.w3.org/1999/xlink" viewBox="0 0 155.52 155.52"><defs><style>.cls-1{fill:#231f20;}.cls-2{mask:url(#mask);}.cls-3{fill:url(#linear-gradient);}.cls-4{filter:url(#luminosity-invert);}</style><filter id="luminosity-invert" filterUnits="userSpaceOnUse" color-interpolation-filters="sRGB"><feColorMatrix values="-1 0 0 0 1 0 -1 0 0 1 0 0 -1 0 1 0 0 0 1 0"/></filter><mask id="mask" x="0" y="0" width="155.72" height="155.52" maskUnits="userSpaceOnUse"><g class="cls-4"><g transform="translate(-241.56 -420.94)"><path class="cls-1" d="M241.76,561.13V436.28c.19,0,.13-.16.15-.26a17,17,0,0,1,7-11.77,16.78,16.78,0,0,1,8-3.17c.07,0,.24.07.22-.14H381.94c0,.19.17.14.27.15A17,17,0,0,1,394,428a16.71,16.71,0,0,1,3.19,8c0,.08-.06.25.14.22V561.13c-.19,0-.13.16-.14.26a15.9,15.9,0,0,1-1.65,5.44,17.1,17.1,0,0,1-13.32,9.5c-.08,0-.25-.07-.23.13H257.1c0-.19-.16-.13-.26-.14a17.06,17.06,0,0,1-11.7-6.89,16.72,16.72,0,0,1-3.24-8.08C241.89,561.27,242,561.1,241.76,561.13Zm84.09-71.23v-.4c0-3,0-6.05,0-9.07,0-.38-.1-.46-.46-.46h-21.3c-.48,0-.48,0-.48.49q0,37,0,73.92c0,.39.09.49.48.48h21.26c.58,0,.5.06.5-.5q0-18.58,0-37.17c0-1.45,0-2.91.13-4.36a19.78,19.78,0,0,1,1.84-7.08,11.77,11.77,0,0,1,7.08-6.23,16.55,16.55,0,0,1,7.09-.64,10.45,10.45,0,0,1,6.63,3.19,13.24,13.24,0,0,1,3,5.65,29.48,29.48,0,0,1,1,8.15v38.5c0,.55-.07.49.51.49h22c.62,0,.54.08.54-.54q0-23,0-45.94a52.4,52.4,0,0,0-.35-6.63,33.53,33.53,0,0,0-2.29-9,22.93,22.93,0,0,0-12.71-12.87A30.41,30.41,0,0,0,344,478.05a25.5,25.5,0,0,0-15.15,8A30.63,30.63,0,0,0,325.85,489.9Zm-37.07,27.56q0-18.5,0-37c0-.38-.09-.48-.48-.48H266.07c-.38,0-.48.08-.48.47q0,37,0,74c0,.37.08.48.47.48q11.13,0,22.25,0c.37,0,.48-.07.48-.47Q288.77,535.94,288.78,517.46Zm2-61.1a13.72,13.72,0,1,0-13.7,13.81A13.78,13.78,0,0,0,290.79,456.36Z"/></g></g></mask><linearGradient id="linear-gradient" y1="77.76" x2="155.52" y2="77.76" gradientUnits="userSpaceOnUse"><stop offset="0" stop-color="#ff7e5f"/><stop offset="1" stop-color="#b758ba"/></linearGradient></defs><g class="cls-2"><rect class="cls-3" width="155.52" height="155.52"/></g></svg>