<svg id="Layer_1" data-name="Layer 1" xmlns="http://www.w3.org/2000/svg" xmlns:xlink="http://www.w3.org/1999/xlink" viewBox="0 0 98.63 98.63"><defs><style>.cls-1{mask:url(#mask);}.cls-2{fill:url(#linear-gradient);}.cls-3{filter:url(#luminosity-invert);}</style><filter id="luminosity-invert" filterUnits="userSpaceOnUse" color-interpolation-filters="sRGB"><feColorMatrix values="-1 0 0 0 1 0 -1 0 0 1 0 0 -1 0 1 0 0 0 1 0"/></filter><mask id="mask" x="0" y="0" width="98.63" height="98.63" maskUnits="userSpaceOnUse"><g class="cls-3"><g transform="translate(-124.68 -495.05)"><path d="M184.41,537.55q3.48-4,7-8c2-2.34,4.11-4.66,6.15-7q4.43-5.05,8.83-10.12c2.08-2.39,4.14-4.79,6.23-7.17,1.59-1.8,3.2-3.57,4.8-5.35-.19-.47-.6-.23-.9-.23-4.44,0-8.87,0-13.31,0a1.7,1.7,0,0,0-1.31.59Q189.93,514,178,527.61c-.53.61-.71.5-1.14-.07q-10.17-13.5-20.38-27a1.74,1.74,0,0,0-1.55-.87c-9.77,0-19.55,0-29.32,0-.31,0-.73-.24-.92.25a5.08,5.08,0,0,1,.38.43Q143.27,524.2,161.5,548c.43.56.19.81-.14,1.2q-14,16-28,32c-2.24,2.55-4.47,5.11-6.72,7.69a1.65,1.65,0,0,0,1,.13c4.28,0,8.56,0,12.84,0a2.4,2.4,0,0,0,2-.94q11.17-12.86,22.4-25.65l4.08-4.64c.2.25.35.42.48.6q11.46,15,22.9,30a1.65,1.65,0,0,0,1.32.65c9.53,0,19.06,0,28.59,0,.3,0,.61,0,1,0ZM197.51,580c-.54,0-.71-.36-1-.68q-8.18-10.68-16.34-21.35L142.85,509.1c-.17-.22-.33-.45-.58-.81H151c.53,0,.64.49.88.8q9.25,12.21,18.49,24.43L205,579.34l.45.63C202.64,580,200.07,580,197.51,580Z"/></g></g></mask><linearGradient id="linear-gradient" y1="49.31" x2="98.63" y2="49.31" gradientUnits="userSpaceOnUse"><stop offset="0" stop-color="#ff7e5f"/><stop offset="1" stop-color="#b758ba"/></linearGradient></defs><g class="cls-1"><rect class="cls-2" width="98.63" height="98.63"/></g></svg>